# xmcd
#
# Track frame offsets:
#	150
#	17262
#	37262
#	54646
#	69070
#	92346
#	109778
#	136827
#	155870
#	183590
#	204924
#	222543
#
# Disc length: 3284 seconds
#
# Revision: 0
# Processed by: cddbd v1.4PL0 Copyright (c) Steve Scherf et al.
# Submitted via: dBpowerAMP V4.0
#
DISCID=a20cd20c
DTITLE=Bockner, Rich and Bennett, Keith - Think For Yourself
DYEAR=2003
DGENRE=Blues
TTITLE0=Last Kind Word Blues
TTITLE1=Keep Your Lamp Trimmed And Burning
TTITLE2=Reason Any Why She Left
TTITLE3=Mississippi Blues
TTITLE4=I Ain´t Got Nothing But The Blues
TTITLE5=Think For Yourself
TTITLE6=Blackness And Blues
TTITLE7=Special Rider Blues
TTITLE8=Rainy Night In Chinatown
TTITLE9=Sanctuary
TTITLE10=Jumpin´ At The Yale
TTITLE11=Rollin´ and Tumblin´
EXTD=Think For Yourself
EXTT0=
EXTT1=
EXTT2=
EXTT3=
EXTT4=
EXTT5=
EXTT6=
EXTT7=
EXTT8=
EXTT9=
EXTT10=
EXTT11=
PLAYORDER=
